<mxfile host="app.diagrams.net" modified="2021-10-27T10:02:56.676Z" agent="5.0 (Windows NT 10.0; Win64; x64) AppleWebKit/537.36 (KHTML, like Gecko) Chrome/80.0.3987.106 Safari/537.36" etag="tJW_OXf8ciXX4rhCiyPR" version="15.5.9" type="github">
  <diagram id="C5RBs43oDa-KdzZeNtuy" name="Page-1">
    <mxGraphModel dx="1240" dy="1869" grid="1" gridSize="10" guides="1" tooltips="1" connect="1" arrows="1" fold="1" page="1" pageScale="1" pageWidth="827" pageHeight="1169" math="0" shadow="0">
      <root>
        <mxCell id="WIyWlLk6GJQsqaUBKTNV-0" />
        <mxCell id="WIyWlLk6GJQsqaUBKTNV-1" parent="WIyWlLk6GJQsqaUBKTNV-0" />
        <mxCell id="cfla5ahWTEfBknXDA31X-22" value="" style="edgeStyle=orthogonalEdgeStyle;curved=0;rounded=1;sketch=0;orthogonalLoop=1;jettySize=auto;html=1;strokeColor=#0B4D6A;" edge="1" parent="WIyWlLk6GJQsqaUBKTNV-1" source="cfla5ahWTEfBknXDA31X-1" target="cfla5ahWTEfBknXDA31X-21">
          <mxGeometry relative="1" as="geometry" />
        </mxCell>
        <mxCell id="cfla5ahWTEfBknXDA31X-1" value="MULAI" style="strokeWidth=2;html=1;shape=mxgraph.flowchart.terminator;whiteSpace=wrap;fontStyle=1;" vertex="1" parent="WIyWlLk6GJQsqaUBKTNV-1">
          <mxGeometry x="317" y="-180" width="127" height="80" as="geometry" />
        </mxCell>
        <mxCell id="cfla5ahWTEfBknXDA31X-25" value="" style="edgeStyle=orthogonalEdgeStyle;curved=0;rounded=1;sketch=0;orthogonalLoop=1;jettySize=auto;html=1;strokeColor=#0B4D6A;" edge="1" parent="WIyWlLk6GJQsqaUBKTNV-1" source="cfla5ahWTEfBknXDA31X-21" target="cfla5ahWTEfBknXDA31X-24">
          <mxGeometry relative="1" as="geometry" />
        </mxCell>
        <mxCell id="cfla5ahWTEfBknXDA31X-21" value="" style="shape=parallelogram;html=1;strokeWidth=2;perimeter=parallelogramPerimeter;whiteSpace=wrap;rounded=1;arcSize=12;size=0.23;sketch=0;" vertex="1" parent="WIyWlLk6GJQsqaUBKTNV-1">
          <mxGeometry x="320.5" y="-20" width="120" height="60" as="geometry" />
        </mxCell>
        <mxCell id="cfla5ahWTEfBknXDA31X-24" value="" style="rounded=0;whiteSpace=wrap;html=1;sketch=0;" vertex="1" parent="WIyWlLk6GJQsqaUBKTNV-1">
          <mxGeometry x="320.5" y="120" width="120" height="60" as="geometry" />
        </mxCell>
      </root>
    </mxGraphModel>
  </diagram>
</mxfile>
